<svg width="45" height="45" viewBox="0 0 45 45" fill="none" xmlns="http://www.w3.org/2000/svg">
<g filter="url(#filter0_d_122_3510)">
<rect x="5" y="5" width="35" height="35" rx="8" fill="#EFF5FF" shape-rendering="crispEdges"/>
<rect x="5.5" y="5.5" width="34" height="34" rx="7.5" stroke="#71BBFE" shape-rendering="crispEdges"/>
<path d="M23.5505 25.5372V28.0376H21.1716V25.5372C21.1754 25.2239 21.3022 24.9247 21.5248 24.7041C21.7474 24.4836 22.0477 24.3594 22.3611 24.3585C22.5159 24.3603 22.6689 24.3928 22.8112 24.4541C22.9534 24.5154 23.0821 24.6043 23.1897 24.7157C23.3019 24.8215 23.3916 24.9487 23.4535 25.0898C23.5155 25.231 23.5485 25.3831 23.5505 25.5372Z" fill="#C2E3F7"/>
<path d="M25.9687 21.9297L25.9329 22.0368V28.0733H23.5505V25.573C23.5489 25.4191 23.5165 25.2671 23.4552 25.126C23.3938 24.9849 23.3048 24.8575 23.1933 24.7515C23.0857 24.6401 22.957 24.5512 22.8147 24.4899C22.6725 24.4286 22.5195 24.3961 22.3646 24.3943C22.0513 24.3952 21.7509 24.5193 21.5284 24.7399C21.3058 24.9604 21.179 25.2597 21.1752 25.573V28.0733H18.7927V22.0368L18.7213 21.9297L22.3325 20.0366L25.9687 21.9297Z" fill="#C2E3F7"/>
<path d="M32.966 29.2164V29.2878C32.9514 28.934 32.8011 28.5994 32.5464 28.3533C32.2917 28.1073 31.9521 27.9687 31.598 27.9662C31.2415 27.9893 30.9066 28.1452 30.6593 28.4031C30.412 28.6609 30.2703 29.0021 30.2621 29.3592V15.5717C30.2584 15.3871 30.2915 15.2035 30.3596 15.0318C30.4277 14.86 30.5293 14.7036 30.6586 14.5716C30.7814 14.4473 30.9277 14.3485 31.0889 14.2811C31.2502 14.2136 31.4232 14.1788 31.598 14.1787C31.9688 14.1871 32.321 14.3423 32.5775 14.6102C32.834 14.878 32.9737 15.2367 32.966 15.6075V29.2164Z" fill="#C2E3F7"/>
<path d="M14.9316 31.6452H13.1456V15.5717H25.7687C26.1687 16.0003 26.6009 16.3932 27.1046 16.929L28.4762 15.5717H30.28V29.3949C30.2671 29.2125 30.2913 29.0295 30.3511 28.8567C30.4109 28.684 30.5051 28.5251 30.6279 28.3898C30.7507 28.2544 30.8997 28.1453 31.0659 28.0691C31.232 27.9929 31.4119 27.9511 31.5946 27.9463C31.7773 27.9414 31.9592 27.9737 32.1291 28.041C32.299 28.1084 32.4536 28.2094 32.5834 28.3381C32.7132 28.4668 32.8157 28.6204 32.8845 28.7898C32.9533 28.9591 32.9871 29.1407 32.9839 29.3234C32.9482 30.6093 32.0481 31.6452 30.7479 31.6452H14.9316ZM18.7606 21.9296L18.8321 22.0368V28.0733H25.9401V22.0368L26.0116 21.9296L22.404 20.0365L18.7606 21.9296Z" fill="white"/>
<path d="M17.3104 23.144C17.227 23.1463 17.1448 23.1237 17.0742 23.0792C17.0036 23.0347 16.9478 22.9702 16.9139 22.894C16.8599 22.7889 16.8487 22.6669 16.8827 22.5537C16.9167 22.4405 16.9931 22.3448 17.0961 22.2868L18.5249 21.5367L22.1325 19.6436C22.2377 19.5891 22.3599 19.5772 22.4736 19.6105C22.5874 19.6438 22.684 19.7196 22.7433 19.8222C22.7985 19.9267 22.8107 20.0487 22.7774 20.1621C22.744 20.2755 22.6677 20.3714 22.5647 20.4294L18.9571 22.3225L17.4783 23.1083C17.4275 23.1376 17.3687 23.1501 17.3104 23.144Z" fill="#0B7BE2"/>
<path d="M27.4474 23.144C27.3742 23.1497 27.3006 23.1374 27.2331 23.1083L25.7508 22.3225L22.1468 20.4294C22.0438 20.3714 21.9673 20.2757 21.9333 20.1625C21.8994 20.0493 21.9106 19.9273 21.9646 19.8222C22.0246 19.7193 22.1218 19.6434 22.2361 19.6102C22.3504 19.577 22.4732 19.5889 22.579 19.6436L26.1866 21.5367L27.6153 22.2868C27.7177 22.3454 27.7934 22.4413 27.8267 22.5545C27.86 22.6677 27.8482 22.7893 27.7939 22.894C27.7708 22.9675 27.7246 23.0315 27.6622 23.0765C27.5998 23.1216 27.5244 23.1453 27.4474 23.144Z" fill="#0B7BE2"/>
<path d="M32.966 29.7877C32.8579 29.7882 32.7535 29.7481 32.6735 29.6753C32.5935 29.6026 32.5436 29.5025 32.5338 29.3948V29.2877C32.5361 29.2287 32.5501 29.1708 32.5749 29.1173C32.5997 29.0637 32.6349 29.0156 32.6784 28.9758C32.7219 28.9359 32.7729 28.9051 32.8284 28.885C32.8839 28.865 32.9428 28.8562 33.0017 28.8591C33.1158 28.8599 33.2251 28.9052 33.3064 28.9852C33.3877 29.0652 33.4347 29.1736 33.4375 29.2877V29.3948C33.4375 29.5734 33.2196 29.752 32.966 29.7877Z" fill="#0B7BE2"/>
<path d="M14.9315 32.0738C14.8079 32.0729 14.6896 32.0239 14.6016 31.9372C14.5135 31.8505 14.4627 31.7329 14.46 31.6094V28.0375C14.4702 27.92 14.5241 27.8107 14.6111 27.731C14.6981 27.6513 14.8117 27.6071 14.9297 27.6071C15.0476 27.6071 15.1613 27.6513 15.2482 27.731C15.3352 27.8107 15.3891 27.92 15.3994 28.0375V31.6094C15.3966 31.7323 15.3463 31.8494 15.2591 31.936C15.1718 32.0226 15.0544 32.072 14.9315 32.0738Z" fill="#0B7BE2"/>
<path d="M32.966 29.7521C32.8431 29.7502 32.7257 29.7009 32.6384 29.6143C32.5512 29.5277 32.5009 29.4106 32.4981 29.2877V15.6074C32.5029 15.4848 32.4833 15.3625 32.4406 15.2476C32.3978 15.1326 32.3328 15.0273 32.2491 14.9376C32.1654 14.8479 32.0647 14.7757 31.953 14.7252C31.8413 14.6746 31.7206 14.6467 31.598 14.643C31.359 14.6491 31.1294 14.7374 30.9479 14.893C30.8598 14.9816 30.7916 15.088 30.7479 15.205C30.7042 15.322 30.6859 15.447 30.6943 15.5717C30.6943 15.6958 30.645 15.8148 30.5573 15.9025C30.4695 15.9903 30.3505 16.0396 30.2264 16.0396C30.1023 16.0396 29.9833 15.9903 29.8955 15.9025C29.8078 15.8148 29.7585 15.6958 29.7585 15.5717C29.7517 15.3313 29.7963 15.0922 29.8893 14.8705C29.9823 14.6487 30.1216 14.4494 30.2978 14.2858C30.6348 13.9513 31.0876 13.7594 31.5623 13.75C31.8018 13.7537 32.0382 13.8048 32.2579 13.9003C32.4776 13.9959 32.6762 14.134 32.8422 14.3066C33.0082 14.4793 33.1384 14.6832 33.2253 14.9064C33.3121 15.1297 33.3539 15.3679 33.3482 15.6074V29.3234C33.4375 29.5378 33.2196 29.7521 32.966 29.7521Z" fill="#0B7BE2"/>
<path d="M30.73 32.0738H13.1277C13.0042 32.0729 12.8859 32.0239 12.7978 31.9372C12.7098 31.8505 12.659 31.733 12.6562 31.6095V15.536C12.659 15.4124 12.7098 15.2949 12.7978 15.2082C12.8859 15.1215 13.0042 15.0725 13.1277 15.0716H25.7508C25.8124 15.0679 25.874 15.079 25.9305 15.1038C25.9871 15.1287 26.0369 15.1666 26.0758 15.2145L26.7616 15.8931L27.1188 16.2503L27.476 15.8931L28.1261 15.2502C28.2154 15.1675 28.3298 15.1172 28.4511 15.1073H30.2549C30.3779 15.1091 30.4953 15.1585 30.5826 15.2451C30.6698 15.3317 30.7201 15.4488 30.7229 15.5717V27.8233C30.9915 27.6497 31.3069 27.5624 31.6266 27.5732C32.0842 27.5855 32.5208 27.768 32.8511 28.0851C33.1814 28.4021 33.3815 28.8309 33.4125 29.2877V29.3234C33.4183 30.0429 33.1396 30.7356 32.6373 31.2507C32.1349 31.7657 31.4494 32.0616 30.73 32.0738ZM13.5849 31.1808H30.73C30.971 31.1795 31.2094 31.1301 31.4311 31.0356C31.6529 30.9411 31.8536 30.8034 32.0215 30.6305C32.1894 30.4576 32.3212 30.2529 32.4092 30.0285C32.4971 29.8041 32.5395 29.5644 32.5338 29.3234C32.5232 29.0888 32.4248 28.8667 32.258 28.7013C32.0913 28.5359 31.8684 28.4392 31.6337 28.4305C31.3918 28.4546 31.1669 28.5656 31.0007 28.7429C30.8345 28.9203 30.7383 29.152 30.73 29.3949C30.7282 29.5086 30.6819 29.6171 30.6012 29.6972C30.5204 29.7773 30.4115 29.8226 30.2978 29.8235C30.1841 29.8226 30.0752 29.7773 29.9945 29.6972C29.9137 29.6171 29.8675 29.5086 29.8656 29.3949V16.0003H28.7119L28.169 16.5361L27.4832 17.2147C27.3944 17.2982 27.2796 17.3486 27.1581 17.3576C27.0966 17.3604 27.0353 17.349 26.9789 17.3242C26.9225 17.2994 26.8726 17.262 26.8331 17.2147L26.1508 16.5361L25.6079 16.0003H13.5957L13.5849 31.1808Z" fill="#0B7BE2"/>
<path d="M21.1717 28.5019H18.7892C18.6663 28.5001 18.5489 28.4507 18.4616 28.3641C18.3743 28.2775 18.324 28.1604 18.3213 28.0375V22.0368C18.3315 21.9192 18.3855 21.8099 18.4724 21.7302C18.5594 21.6505 18.673 21.6063 18.791 21.6063C18.9089 21.6063 19.0226 21.6505 19.1096 21.7302C19.1965 21.8099 19.2504 21.9192 19.2607 22.0368V27.6089H21.1717C21.2946 27.6107 21.412 27.6601 21.4993 27.7467C21.5865 27.8333 21.6368 27.9503 21.6396 28.0732C21.6297 28.1904 21.5761 28.2996 21.4894 28.379C21.4027 28.4584 21.2892 28.5023 21.1717 28.5019Z" fill="#0B7BE2"/>
<path d="M25.933 28.5019H23.5505C23.4274 28.5019 23.3093 28.453 23.2222 28.3659C23.1351 28.2789 23.0862 28.1608 23.0862 28.0376C23.0862 27.9144 23.1351 27.7963 23.2222 27.7093C23.3093 27.6222 23.4274 27.5733 23.5505 27.5733H25.4651V22.0368C25.4651 21.9127 25.5144 21.7937 25.6021 21.706C25.6899 21.6182 25.8089 21.5689 25.933 21.5689C26.0571 21.5689 26.1761 21.6182 26.2639 21.706C26.3516 21.7937 26.4009 21.9127 26.4009 22.0368V28.0733C26.3852 28.1881 26.3298 28.2939 26.2444 28.3721C26.1589 28.4504 26.0487 28.4963 25.933 28.5019Z" fill="#0B7BE2"/>
<path d="M23.5505 28.502H21.1717C21.0487 28.5001 20.9313 28.4507 20.844 28.3641C20.7568 28.2776 20.7065 28.1605 20.7037 28.0376V25.5373C20.7037 25.325 20.7458 25.1148 20.8274 24.9189C20.9091 24.7229 21.0288 24.5451 21.1796 24.3956C21.3303 24.2462 21.5092 24.1281 21.7059 24.0482C21.9025 23.9682 22.1131 23.928 22.3254 23.9299C22.7539 23.9379 23.1645 24.1032 23.4791 24.3943C23.6311 24.5427 23.751 24.7207 23.8315 24.9173C23.912 25.1139 23.9513 25.3249 23.947 25.5373V28.0376C23.9606 28.0955 23.9604 28.1558 23.9464 28.2135C23.9324 28.2713 23.905 28.325 23.8664 28.3702C23.8278 28.4154 23.7791 28.4509 23.7242 28.4738C23.6693 28.4967 23.6098 28.5063 23.5505 28.502ZM21.6396 27.609H23.1183V25.5373C23.1209 25.4434 23.103 25.3501 23.066 25.2638C23.029 25.1774 22.9737 25.1001 22.904 25.0372C22.7609 24.9156 22.5838 24.8408 22.3968 24.8229C22.2073 24.8229 22.0256 24.8982 21.8917 25.0321C21.7577 25.1661 21.6824 25.3478 21.6824 25.5373V27.609H21.6396Z" fill="#0B7BE2"/>
</g>
<defs>
<filter id="filter0_d_122_3510" x="0" y="0" width="45" height="45" filterUnits="userSpaceOnUse" color-interpolation-filters="sRGB">
<feFlood flood-opacity="0" result="BackgroundImageFix"/>
<feColorMatrix in="SourceAlpha" type="matrix" values="0 0 0 0 0 0 0 0 0 0 0 0 0 0 0 0 0 0 127 0" result="hardAlpha"/>
<feOffset/>
<feGaussianBlur stdDeviation="2.5"/>
<feComposite in2="hardAlpha" operator="out"/>
<feColorMatrix type="matrix" values="0 0 0 0 0.0431373 0 0 0 0 0.481569 0 0 0 0 0.886275 0 0 0 0.4 0"/>
<feBlend mode="normal" in2="BackgroundImageFix" result="effect1_dropShadow_122_3510"/>
<feBlend mode="normal" in="SourceGraphic" in2="effect1_dropShadow_122_3510" result="shape"/>
</filter>
</defs>
</svg>
