<svg width="45" height="45" viewBox="0 0 45 45" fill="none" xmlns="http://www.w3.org/2000/svg">
<g filter="url(#filter0_d_122_3494)">
<rect x="5" y="5" width="35" height="35" rx="8" fill="#EFF5FF" shape-rendering="crispEdges"/>
<rect x="5.5" y="5.5" width="34" height="34" rx="7.5" stroke="#71BBFE" shape-rendering="crispEdges"/>
<path d="M28.0702 29.6378V31.8747H15.3164V14.3044H17.611V29.6378H28.0702Z" fill="#C2E3F7"/>
<path d="M27.6335 12.0316L30.3647 14.7374H27.6335V12.0316Z" fill="#C2E3F7"/>
<path d="M30.3647 14.7374V29.6379H17.611V12.0316H27.6336V14.7374H30.3647Z" fill="white"/>
<path d="M28.0701 32.3437H15.3164C15.1922 32.3419 15.0736 32.292 14.9855 32.2046C14.8973 32.1171 14.8465 31.9989 14.8438 31.8747V14.3045C14.8465 14.1803 14.8973 14.0621 14.9855 13.9746C15.0736 13.8872 15.1922 13.8373 15.3164 13.8354H17.611C17.7354 13.8354 17.8547 13.8849 17.9426 13.9728C18.0306 14.0608 18.08 14.1801 18.08 14.3045C18.08 14.4289 18.0306 14.5482 17.9426 14.6361C17.8547 14.7241 17.7354 14.7735 17.611 14.7735H15.807V31.4779H27.6516V29.6739C27.6516 29.5486 27.7014 29.4284 27.7901 29.3397C27.8787 29.2511 27.9989 29.2013 28.1243 29.2013C28.2496 29.2013 28.3698 29.2511 28.4585 29.3397C28.5471 29.4284 28.5969 29.5486 28.5969 29.6739V31.9469C28.5635 32.0609 28.4942 32.1611 28.3993 32.2326C28.3044 32.3041 28.189 32.3431 28.0701 32.3437Z" fill="#0B7BE2"/>
<path d="M30.3647 30.0708H17.6109C17.4868 30.069 17.3682 30.0191 17.28 29.9316C17.1919 29.8441 17.1411 29.7259 17.1383 29.6018V12.0315C17.1411 11.9074 17.1919 11.7892 17.28 11.7017C17.3682 11.6142 17.4868 11.5643 17.6109 11.5625H27.6336C27.6947 11.5627 27.7552 11.5756 27.8111 11.6004C27.867 11.6253 27.9171 11.6615 27.9583 11.7068L30.693 14.4127C30.7765 14.5015 30.8274 14.6159 30.8373 14.7374V29.6379C30.816 29.7515 30.7584 29.8551 30.6732 29.9331C30.588 30.0112 30.4797 30.0595 30.3647 30.0708ZM18.0475 29.1688H29.9101V14.9178L27.4315 12.4645H18.0511L18.0475 29.1688Z" fill="#0B7BE2"/>
<path d="M30.3647 15.2064H27.6336C27.5088 15.2055 27.3893 15.156 27.3004 15.0685C27.2115 14.9809 27.1602 14.8622 27.1573 14.7374V12.0315C27.1677 11.9128 27.2222 11.8023 27.31 11.7218C27.3978 11.6413 27.5126 11.5967 27.6318 11.5967C27.7509 11.5967 27.8657 11.6413 27.9536 11.7218C28.0414 11.8023 28.0959 11.9128 28.1062 12.0315V14.3045H30.4008C30.525 14.3063 30.6436 14.3562 30.7317 14.4436C30.8199 14.5311 30.8707 14.6493 30.8734 14.7735C30.8388 14.8866 30.7724 14.9875 30.6823 15.0642C30.5922 15.1409 30.482 15.1903 30.3647 15.2064Z" fill="#0B7BE2"/>
<path d="M28.5428 23.7571H19.4474C19.323 23.7571 19.2037 23.7077 19.1158 23.6197C19.0278 23.5317 18.9784 23.4124 18.9784 23.2881C18.9784 23.1637 19.0278 23.0444 19.1158 22.9564C19.2037 22.8684 19.323 22.819 19.4474 22.819H28.5573C28.6814 22.8209 28.8 22.8708 28.8882 22.9582C28.9763 23.0457 29.0271 23.1639 29.0299 23.2881C29.021 23.4126 28.9664 23.5295 28.8764 23.6161C28.7865 23.7027 28.6676 23.7529 28.5428 23.7571Z" fill="#0B7BE2"/>
<path d="M28.7376 21.881H19.6422C19.5178 21.881 19.3986 21.8316 19.3106 21.7436C19.2226 21.6556 19.1732 21.5363 19.1732 21.412C19.1732 21.2876 19.2226 21.1683 19.3106 21.0803C19.3986 20.9923 19.5178 20.9429 19.6422 20.9429H28.7521C28.8762 20.9448 28.9948 20.9947 29.083 21.0821C29.1711 21.1696 29.2219 21.2878 29.2247 21.412C29.2159 21.5365 29.1612 21.6534 29.0712 21.74C28.9813 21.8266 28.8624 21.8768 28.7376 21.881Z" fill="#0B7BE2"/>
<path d="M28.7376 20.077H19.6422C19.5178 20.077 19.3986 20.0276 19.3106 19.9396C19.2226 19.8517 19.1732 19.7324 19.1732 19.608C19.1732 19.4836 19.2226 19.3643 19.3106 19.2764C19.3986 19.1884 19.5178 19.139 19.6422 19.139H28.7521C28.8762 19.1408 28.9948 19.1907 29.083 19.2782C29.1711 19.3656 29.2219 19.4839 29.2247 19.608C29.2159 19.7326 29.1612 19.8494 29.0712 19.936C28.9813 20.0226 28.8624 20.0729 28.7376 20.077Z" fill="#0B7BE2"/>
<path d="M28.5428 25.561H19.4474C19.323 25.561 19.2037 25.5116 19.1158 25.4236C19.0278 25.3356 18.9784 25.2163 18.9784 25.0919C18.9784 24.9676 19.0278 24.8483 19.1158 24.7603C19.2037 24.6723 19.323 24.6229 19.4474 24.6229H28.5573C28.6814 24.6248 28.8 24.6747 28.8882 24.7621C28.9763 24.8496 29.0271 24.9678 29.0299 25.0919C29.021 25.2165 28.9664 25.3334 28.8764 25.42C28.7865 25.5066 28.6676 25.5568 28.5428 25.561Z" fill="#0B7BE2"/>
<path d="M28.5428 27.3649H24.8988C24.7744 27.3649 24.6551 27.3154 24.5672 27.2275C24.4792 27.1395 24.4298 27.0202 24.4298 26.8958C24.4298 26.7714 24.4792 26.6522 24.5672 26.5642C24.6551 26.4762 24.7744 26.4268 24.8988 26.4268H28.5428C28.6669 26.4287 28.7855 26.4786 28.8737 26.566C28.9618 26.6535 29.0126 26.7717 29.0154 26.8958C29.0014 27.016 28.947 27.1278 28.8611 27.213C28.7753 27.2983 28.663 27.3518 28.5428 27.3649Z" fill="#0B7BE2"/>
</g>
<defs>
<filter id="filter0_d_122_3494" x="0" y="0" width="45" height="45" filterUnits="userSpaceOnUse" color-interpolation-filters="sRGB">
<feFlood flood-opacity="0" result="BackgroundImageFix"/>
<feColorMatrix in="SourceAlpha" type="matrix" values="0 0 0 0 0 0 0 0 0 0 0 0 0 0 0 0 0 0 127 0" result="hardAlpha"/>
<feOffset/>
<feGaussianBlur stdDeviation="2.5"/>
<feComposite in2="hardAlpha" operator="out"/>
<feColorMatrix type="matrix" values="0 0 0 0 0.0431373 0 0 0 0 0.481569 0 0 0 0 0.886275 0 0 0 0.4 0"/>
<feBlend mode="normal" in2="BackgroundImageFix" result="effect1_dropShadow_122_3494"/>
<feBlend mode="normal" in="SourceGraphic" in2="effect1_dropShadow_122_3494" result="shape"/>
</filter>
</defs>
</svg>
