<svg width="45" height="45" viewBox="0 0 45 45" fill="none" xmlns="http://www.w3.org/2000/svg">
<g filter="url(#filter0_d_122_3540)">
<rect x="5" y="5" width="35" height="35" rx="8" fill="#EFF5FF" shape-rendering="crispEdges"/>
<rect x="5.5" y="5.5" width="34" height="34" rx="7.5" stroke="#71BBFE" shape-rendering="crispEdges"/>
<path d="M22.156 19.4091V21.3931H20.3564V19.4091C20.3564 19.2894 20.3802 19.1709 20.4263 19.0604C20.4724 18.9499 20.54 18.8497 20.6252 18.7655C20.7103 18.6813 20.8113 18.6149 20.9223 18.57C21.0333 18.5251 21.1521 18.5028 21.2719 18.5041C21.5036 18.5106 21.7261 18.5966 21.9019 18.7478C22.0531 18.9365 22.1419 19.1677 22.156 19.4091Z" fill="#C2E3F7"/>
<path d="M23.9764 16.6942L23.9416 16.7638V21.3931H22.156V19.4091C22.1498 19.1777 22.0623 18.9559 21.9088 18.7826C21.8262 18.7009 21.7276 18.6371 21.6192 18.5952C21.5108 18.5532 21.395 18.5341 21.2788 18.539C21.159 18.5371 21.04 18.5592 20.9288 18.6039C20.8176 18.6486 20.7164 18.715 20.6311 18.7993C20.5459 18.8835 20.4783 18.9839 20.4323 19.0946C20.3864 19.2053 20.3629 19.3241 20.3634 19.4439V21.4279H18.5639V16.7638L18.5291 16.6942L21.2719 15.3019L23.9764 16.6942Z" fill="#C2E3F7"/>
<path d="M29.7439 13.1439C31.2197 13.2135 31.1361 15.4412 29.6708 15.4412H27.4571C27.454 14.8453 27.6837 14.2718 28.0972 13.8428C28.5106 13.4137 29.0752 13.163 29.6708 13.1439H29.7439Z" fill="white"/>
<path d="M18.5291 16.6942L18.5639 16.7638V21.3931H23.9416V16.7638L23.9764 16.6942L21.2719 15.3019L18.5291 16.6942ZM29.709 13.1439H29.6707C29.0752 13.163 28.5106 13.4137 28.0971 13.8428C27.6837 14.2718 27.454 14.8453 27.457 15.4412V28.7721C27.4618 29.3501 27.2401 29.9069 26.8393 30.3233C26.4385 30.7396 25.8906 30.9825 25.3129 30.9998H24.857C24.2916 30.9789 23.7568 30.7379 23.3666 30.3283C22.9764 29.9186 22.7618 29.3726 22.7686 28.8069V28.7373H15.226V14.3622C15.2314 14.039 15.3629 13.7307 15.5925 13.5031C15.822 13.2755 16.1314 13.1466 16.4546 13.1439H29.709Z" fill="white"/>
<path d="M24.857 30.9649H15.2259C14.0634 30.9649 13.0818 30.1992 13.0818 28.7373H22.7825V28.8069C22.7821 29.3651 22.9979 29.9017 23.3847 30.3041C23.7715 30.7065 24.2992 30.9433 24.857 30.9649Z" fill="white"/>
<path d="M29.6707 15.8588H27.457C27.337 15.8588 27.2219 15.8111 27.137 15.7263C27.0522 15.6414 27.0045 15.5263 27.0045 15.4063C27.0045 15.2863 27.0522 15.1712 27.137 15.0864C27.2219 15.0015 27.337 14.9538 27.457 14.9538H29.6707C29.7637 14.96 29.857 14.9462 29.9442 14.9134C30.0315 14.8806 30.1107 14.8295 30.1766 14.7636C30.2425 14.6977 30.2936 14.6185 30.3264 14.5312C30.3592 14.444 30.373 14.3507 30.3668 14.2577C30.3756 14.1651 30.3649 14.0717 30.3354 13.9835C30.306 13.8953 30.2585 13.8142 30.1959 13.7454C30.1333 13.6766 30.0571 13.6216 29.972 13.584C29.887 13.5463 29.795 13.5268 29.702 13.5268H29.6289C29.5718 13.5245 29.5157 13.511 29.4638 13.487C29.4119 13.463 29.3652 13.429 29.3264 13.387C29.2876 13.345 29.2575 13.2958 29.2377 13.2421C29.218 13.1884 29.209 13.1314 29.2113 13.0743C29.2135 13.0171 29.2271 12.961 29.251 12.9091C29.275 12.8572 29.309 12.8105 29.351 12.7717C29.393 12.7329 29.4423 12.7028 29.4959 12.6831C29.5496 12.6633 29.6066 12.6543 29.6637 12.6566H29.7716C29.9748 12.6614 30.1749 12.707 30.36 12.7908C30.5451 12.8745 30.7115 12.9947 30.8492 13.1441C30.9869 13.2935 31.0931 13.4691 31.1616 13.6604C31.23 13.8517 31.2592 14.0549 31.2475 14.2577C31.2571 14.4685 31.2232 14.679 31.1477 14.876C31.0722 15.073 30.9568 15.2523 30.8088 15.4026C30.6607 15.553 30.4832 15.6711 30.2874 15.7496C30.0915 15.8281 29.8816 15.8653 29.6707 15.8588Z" fill="#0B7BE2"/>
<path d="M25.3129 31.4174H24.8221C24.1923 31.3745 23.5963 31.1165 23.134 30.6865C22.716 30.2883 22.4439 29.7612 22.3613 29.1898H15.2259C15.1055 29.1889 14.9902 29.1412 14.9045 29.0567C14.8187 28.9722 14.7692 28.8577 14.7665 28.7373V14.3273C14.7674 14.1113 14.8109 13.8976 14.8945 13.6984C14.9782 13.4992 15.1002 13.3184 15.2538 13.1664C15.4074 13.0145 15.5894 12.8943 15.7895 12.8128C15.9896 12.7313 16.2038 12.6901 16.4198 12.6914H29.709C29.7647 12.689 29.8202 12.6981 29.8722 12.7182C29.9242 12.7383 29.9714 12.7689 30.011 12.8081C30.0505 12.8473 30.0815 12.8943 30.1021 12.9461C30.1226 12.9979 30.1321 13.0534 30.1302 13.1091C30.1296 13.2236 30.086 13.3338 30.008 13.4176C29.9299 13.5014 29.8232 13.5529 29.709 13.5616H29.6707C29.1931 13.5828 28.7417 13.7856 28.4085 14.1284C28.0754 14.4713 27.8857 14.9284 27.8782 15.4063V28.7373C27.8869 29.0954 27.8195 29.4513 27.6803 29.7813C27.541 30.1114 27.3332 30.4081 27.0707 30.6517C26.5879 31.0979 25.9684 31.3678 25.3129 31.4174C25.3477 31.4174 25.3477 31.3826 25.3129 31.4174ZM24.8918 30.5473H25.3129C25.7811 30.5301 26.2242 30.3318 26.5489 29.9941C26.8736 29.6564 27.0545 29.2058 27.0532 28.7373V15.4063C27.0476 15.0653 27.1099 14.7265 27.2366 14.4097C27.3633 14.093 27.5518 13.8047 27.7912 13.5616H16.4546C16.2511 13.5625 16.0562 13.6432 15.9117 13.7865C15.7671 13.9297 15.6846 14.1239 15.6819 14.3273V28.2848H22.8173C22.9371 28.2866 23.0515 28.3347 23.1365 28.4191C23.2215 28.5035 23.2705 28.6176 23.2732 28.7373V28.8069C23.263 29.028 23.2969 29.2489 23.3731 29.4567C23.4493 29.6645 23.5662 29.8551 23.7169 30.0171C23.8676 30.1792 24.0492 30.3095 24.2509 30.4006C24.4526 30.4916 24.6705 30.5415 24.8918 30.5473Z" fill="#0B7BE2"/>
<path d="M24.857 31.4174H15.2259C14.896 31.4251 14.5679 31.3676 14.2602 31.2481C13.9526 31.1286 13.6716 30.9496 13.4334 30.7213C13.1781 30.4592 12.9778 30.1486 12.8445 29.8078C12.7112 29.4671 12.6475 29.1031 12.6572 28.7373C12.6598 28.6187 12.7079 28.5056 12.7914 28.4214C12.875 28.3372 12.9877 28.2883 13.1062 28.2848H22.8173C22.9371 28.2866 23.0515 28.3347 23.1365 28.4191C23.2216 28.5035 23.2706 28.6175 23.2733 28.7373V28.7721C23.2648 29.2213 23.4335 29.6557 23.7429 29.9814C24.0523 30.3071 24.4776 30.4979 24.9266 30.5124C24.9825 30.5144 25.0374 30.528 25.0877 30.5523C25.1381 30.5767 25.1829 30.6112 25.2192 30.6537C25.2555 30.6963 25.2826 30.7459 25.2988 30.7995C25.3149 30.853 25.3197 30.9094 25.3129 30.9649C25.3047 31.0828 25.2539 31.1937 25.1701 31.2769C25.0862 31.3602 24.9749 31.4101 24.857 31.4174ZM13.5726 29.155C13.6255 29.5483 13.8255 29.907 14.1323 30.1589C14.439 30.4108 14.8298 30.5371 15.2259 30.5124H22.9948C22.6463 30.1377 22.4247 29.6627 22.3613 29.155H13.5726Z" fill="#0B7BE2"/>
<path d="M25.7689 23.5859H16.9837C16.8637 23.5859 16.7486 23.5382 16.6637 23.4534C16.5789 23.3685 16.5312 23.2534 16.5312 23.1334C16.5312 23.0134 16.5789 22.8983 16.6637 22.8134C16.7486 22.7286 16.8637 22.6809 16.9837 22.6809H25.7689C25.8893 22.6818 26.0046 22.7295 26.0904 22.814C26.1761 22.8985 26.2256 23.013 26.2283 23.1334C26.2193 23.2516 26.1678 23.3625 26.0834 23.4457C25.9989 23.5289 25.8872 23.5787 25.7689 23.5859Z" fill="#0B7BE2"/>
<path d="M25.7689 25.3262H21.9749C21.8549 25.3262 21.7398 25.2786 21.655 25.1937C21.5701 25.1089 21.5225 24.9938 21.5225 24.8737C21.5225 24.7537 21.5701 24.6386 21.655 24.5538C21.7398 24.4689 21.8549 24.4213 21.9749 24.4213H25.7341C25.8545 24.4221 25.9698 24.4699 26.0555 24.5543C26.1413 24.6388 26.1908 24.7534 26.1935 24.8737C26.1921 24.9886 26.1477 25.0988 26.0691 25.1825C25.9905 25.2663 25.8834 25.3175 25.7689 25.3262Z" fill="#0B7BE2"/>
<path d="M17.4048 17.7036C17.3227 17.7105 17.2406 17.6904 17.1709 17.6464C17.1012 17.6025 17.0477 17.537 17.0185 17.46C16.9647 17.3581 16.9527 17.2392 16.9852 17.1287C17.0178 17.0182 17.0921 16.9247 17.1925 16.8682L21.0595 14.9191C21.1626 14.8658 21.2822 14.8541 21.3936 14.8865C21.5051 14.9189 21.5998 14.9929 21.6582 15.0931C21.7108 15.1955 21.7218 15.3144 21.6887 15.4247C21.6556 15.535 21.581 15.6283 21.4807 15.6848L17.6311 17.634C17.5624 17.6752 17.4848 17.6991 17.4048 17.7036Z" fill="#0B7BE2"/>
<path d="M25.1041 17.7036C25.0315 17.7094 24.9587 17.6974 24.8917 17.6688L21.0247 15.7196C20.9718 15.695 20.9247 15.6594 20.8867 15.6151C20.8486 15.5709 20.8204 15.5191 20.8039 15.4631C20.7875 15.4071 20.7831 15.3482 20.7912 15.2904C20.7992 15.2326 20.8195 15.1772 20.8507 15.1279C20.8763 15.0737 20.9132 15.0255 20.9589 14.9867C21.0046 14.9479 21.0581 14.9193 21.1158 14.9028C21.1735 14.8863 21.234 14.8824 21.2933 14.8912C21.3526 14.9 21.4094 14.9213 21.4598 14.9538L25.3268 16.903C25.3796 16.9277 25.4267 16.9633 25.4648 17.0075C25.5029 17.0516 25.5312 17.1033 25.548 17.1592C25.5648 17.215 25.5695 17.2738 25.562 17.3316C25.5545 17.3894 25.5348 17.445 25.5043 17.4947C25.4596 17.5595 25.3998 17.6123 25.3301 17.6487C25.2603 17.6851 25.1827 17.7039 25.1041 17.7036Z" fill="#0B7BE2"/>
<path d="M20.3565 21.8456H18.5639C18.4442 21.8438 18.3297 21.7957 18.2447 21.7113C18.1597 21.6269 18.1107 21.5129 18.108 21.3931V16.7638C18.108 16.6429 18.156 16.5269 18.2415 16.4414C18.327 16.3559 18.443 16.3079 18.5639 16.3079C18.6849 16.3079 18.8008 16.3559 18.8864 16.4414C18.9719 16.5269 19.0199 16.6429 19.0199 16.7638V20.9754H20.3913C20.5117 20.9763 20.627 21.0241 20.7128 21.1085C20.7985 21.193 20.848 21.3076 20.8507 21.4279C20.8212 21.5399 20.7579 21.64 20.6695 21.7147C20.5811 21.7894 20.4718 21.8351 20.3565 21.8456Z" fill="#0B7BE2"/>
<path d="M23.9416 21.8456H22.156C22.036 21.8456 21.9209 21.7979 21.836 21.713C21.7512 21.6282 21.7035 21.5131 21.7035 21.3931C21.7035 21.2731 21.7512 21.158 21.836 21.0731C21.9209 20.9883 22.036 20.9406 22.156 20.9406H23.5274V16.7638C23.5374 16.6493 23.5899 16.5427 23.6746 16.465C23.7594 16.3874 23.8701 16.3443 23.9851 16.3443C24.1 16.3443 24.2108 16.3874 24.2955 16.465C24.3802 16.5427 24.4328 16.6493 24.4428 16.7638V21.3931C24.4264 21.5156 24.367 21.6284 24.2752 21.7113C24.1834 21.7941 24.0652 21.8417 23.9416 21.8456Z" fill="#0B7BE2"/>
<path d="M22.1559 21.8456H20.3564C20.2366 21.8438 20.1222 21.7957 20.0372 21.7113C19.9522 21.6269 19.9031 21.5128 19.9005 21.3931V19.4091C19.9014 19.2345 19.9367 19.0618 20.0043 18.9008C20.072 18.7398 20.1707 18.5938 20.2948 18.471C20.4189 18.3481 20.566 18.251 20.7277 18.185C20.8893 18.119 21.0624 18.0855 21.237 18.0864C21.5905 18.0856 21.9303 18.223 22.1838 18.4693C22.4316 18.7193 22.5705 19.0571 22.5701 19.4091V21.3931C22.576 21.4507 22.5697 21.5089 22.5515 21.5639C22.5333 21.6189 22.5036 21.6695 22.4645 21.7122C22.4254 21.7549 22.3777 21.7889 22.3245 21.8119C22.2713 21.8349 22.2139 21.8464 22.1559 21.8456ZM20.7637 20.9754H21.6791V19.4439C21.6821 19.3844 21.671 19.3251 21.6469 19.2707C21.6227 19.2162 21.586 19.1683 21.5398 19.1306C21.4526 19.0505 21.3412 19.0015 21.2231 18.9914C21.1027 18.9923 20.9874 19.04 20.9016 19.1245C20.8159 19.209 20.7664 19.3235 20.7637 19.4439V20.9754Z" fill="#0B7BE2"/>
</g>
<defs>
<filter id="filter0_d_122_3540" x="0" y="0" width="45" height="45" filterUnits="userSpaceOnUse" color-interpolation-filters="sRGB">
<feFlood flood-opacity="0" result="BackgroundImageFix"/>
<feColorMatrix in="SourceAlpha" type="matrix" values="0 0 0 0 0 0 0 0 0 0 0 0 0 0 0 0 0 0 127 0" result="hardAlpha"/>
<feOffset/>
<feGaussianBlur stdDeviation="2.5"/>
<feComposite in2="hardAlpha" operator="out"/>
<feColorMatrix type="matrix" values="0 0 0 0 0.0431373 0 0 0 0 0.481569 0 0 0 0 0.886275 0 0 0 0.4 0"/>
<feBlend mode="normal" in2="BackgroundImageFix" result="effect1_dropShadow_122_3540"/>
<feBlend mode="normal" in="SourceGraphic" in2="effect1_dropShadow_122_3540" result="shape"/>
</filter>
</defs>
</svg>
