<svg width="45" height="45" viewBox="0 0 45 45" fill="none" xmlns="http://www.w3.org/2000/svg">
<g filter="url(#filter0_d_122_3606)">
<rect x="5" y="5" width="35" height="35" rx="8" fill="#EFF5FF" shape-rendering="crispEdges"/>
<rect x="5.5" y="5.5" width="34" height="34" rx="7.5" stroke="#71BBFE" shape-rendering="crispEdges"/>
<path d="M31.919 27.3591V27.4268C31.9043 27.0909 31.761 26.7736 31.5189 26.5403C31.2768 26.307 30.9544 26.1757 30.6181 26.1734C30.2806 26.1961 29.9638 26.3443 29.73 26.5888C29.4961 26.8333 29.3622 27.1564 29.3545 27.4946V14.384C29.351 14.2088 29.3824 14.0347 29.447 13.8718C29.5116 13.7089 29.608 13.5606 29.7306 13.4354C29.8462 13.3172 29.9843 13.2234 30.1367 13.1594C30.2891 13.0954 30.4528 13.0626 30.6181 13.0627C30.9701 13.0707 31.3045 13.2178 31.5483 13.4718C31.7921 13.7257 31.9254 14.0659 31.919 14.4178V27.3591Z" fill="#C2E3F7"/>
<path d="M19.9434 18.1783H18.2325V19.8722H19.9434V18.1783Z" fill="white"/>
<path d="M19.9434 19.8722H18.2325V21.5661H19.9434V19.8722Z" fill="white"/>
<path d="M19.9434 21.566H18.2325V23.2599H19.9434V21.566Z" fill="white"/>
<path d="M19.9434 23.2599H18.2325V24.9538H19.9434V23.2599Z" fill="white"/>
<path d="M19.9434 24.9539H18.2325V26.6477H19.9434V24.9539Z" fill="white"/>
<path d="M18.2325 24.9539H16.5217V26.6477H18.2325V24.9539Z" fill="white"/>
<path d="M18.2325 23.2599H16.5217V24.9538H18.2325V23.2599Z" fill="white"/>
<path d="M18.2325 21.566H16.5217V23.2599H18.2325V21.566Z" fill="white"/>
<path d="M18.2325 19.8722H16.5217V21.5661H18.2325V19.8722Z" fill="white"/>
<path d="M18.2325 18.1783H16.5217V19.8722H18.2325V18.1783Z" fill="white"/>
<path d="M25.9295 18.1783H19.9434V19.8722H25.9295V18.1783Z" fill="white"/>
<path d="M25.9295 19.8722H19.9434V21.5661H25.9295V19.8722Z" fill="white"/>
<path d="M25.9295 21.566H19.9434V23.2599H25.9295V21.566Z" fill="white"/>
<path d="M25.9295 23.2599H19.9434V24.9538H25.9295V23.2599Z" fill="white"/>
<path d="M25.9295 24.9539H19.9434V26.6477H25.9295V24.9539Z" fill="white"/>
<path d="M30.6182 26.1734C30.9529 26.1805 31.2727 26.3135 31.5138 26.5458C31.7548 26.7781 31.8996 27.0927 31.9191 27.4269C31.8852 28.6465 31.0281 29.6289 29.7983 29.6289H13.1001V14.384H25.0758C25.4519 14.7906 25.8618 15.1632 26.3428 15.6714L27.6437 14.384H29.3376V27.5285C29.3371 27.1817 29.4696 26.8478 29.7078 26.5958C29.946 26.3437 30.2719 26.1925 30.6182 26.1734ZM25.9329 18.1783H16.5217V26.6477H25.9329V18.1783Z" fill="white"/>
<path d="M31.9191 27.8674C31.8163 27.8686 31.7169 27.8308 31.6408 27.7616C31.5648 27.6925 31.5177 27.5971 31.5092 27.4947V27.3931C31.5109 27.337 31.5238 27.2818 31.5472 27.2308C31.5706 27.1799 31.6039 27.1341 31.6453 27.0962C31.6867 27.0583 31.7352 27.029 31.788 27.0102C31.8409 26.9914 31.8969 26.9833 31.953 26.9865C32.0608 26.9874 32.1641 27.0304 32.2407 27.1064C32.3172 27.1823 32.3611 27.2852 32.3629 27.3931V27.4608C32.3535 27.5719 32.3026 27.6755 32.2204 27.7508C32.1382 27.8261 32.0306 27.8677 31.9191 27.8674Z" fill="#0B7BE2"/>
<path d="M31.919 27.8334C31.8025 27.8317 31.6911 27.7848 31.6083 27.7027C31.5256 27.6206 31.4779 27.5096 31.4752 27.393V14.4179C31.4798 14.3014 31.4611 14.1851 31.4204 14.0758C31.3796 13.9666 31.3176 13.8665 31.2378 13.7814C31.1581 13.6964 31.0623 13.6279 30.9559 13.5802C30.8495 13.5324 30.7347 13.5062 30.6181 13.5032C30.3919 13.5114 30.1749 13.5948 30.0016 13.7403C29.9192 13.825 29.8555 13.9261 29.8146 14.037C29.7738 14.1479 29.7567 14.2661 29.7644 14.384C29.7547 14.4954 29.7035 14.5992 29.6211 14.6748C29.5386 14.7504 29.4308 14.7923 29.3189 14.7923C29.2071 14.7923 29.0993 14.7504 29.0168 14.6748C28.9343 14.5992 28.8832 14.4954 28.8734 14.384C28.8677 14.1558 28.9106 13.929 28.9994 13.7187C29.0882 13.5084 29.2208 13.3194 29.3884 13.1644C29.7069 12.8477 30.1351 12.6657 30.5843 12.6562C30.8114 12.6598 31.0357 12.7082 31.244 12.7988C31.4524 12.8895 31.6407 13.0204 31.7982 13.1842C31.9557 13.348 32.0791 13.5413 32.1615 13.7531C32.2439 13.9648 32.2835 14.1908 32.2781 14.4179V27.4269C32.3628 27.664 32.1663 27.8334 31.919 27.8334Z" fill="#0B7BE2"/>
<path d="M29.7949 30.0355H13.1C12.9835 30.0337 12.8721 29.9869 12.7893 29.9048C12.7066 29.8226 12.6589 29.7116 12.6562 29.595V14.3501C12.6589 14.2336 12.7066 14.1226 12.7893 14.0404C12.8721 13.9583 12.9835 13.9115 13.1 13.9097H25.0758C25.1342 13.9065 25.1925 13.9171 25.2461 13.9407C25.2996 13.9642 25.3469 14 25.3841 14.0452L26.0345 14.6889L26.3733 15.0277L26.7121 14.6889L27.3286 14.0791C27.4128 14 27.5217 13.9522 27.6369 13.9436H29.3308C29.4474 13.9453 29.5587 13.9922 29.6415 14.0743C29.7243 14.1564 29.772 14.2674 29.7746 14.384V26.004C30.0282 25.8395 30.3262 25.7567 30.6283 25.7669C31.0626 25.7778 31.4772 25.9506 31.7906 26.2515C32.104 26.5523 32.2936 26.9595 32.3222 27.393V27.4269C32.3286 28.1067 32.0669 28.7616 31.5939 29.2498C31.1209 29.7381 30.4746 30.0203 29.7949 30.0355ZM13.5337 29.1885H29.7949C30.0221 29.185 30.2463 29.1365 30.4547 29.0459C30.663 28.9553 30.8514 28.8243 31.0088 28.6606C31.1663 28.4968 31.2898 28.3035 31.3722 28.0917C31.4545 27.88 31.4942 27.654 31.4888 27.4269C31.4787 27.2038 31.3848 26.9927 31.226 26.8357C31.0671 26.6787 30.8549 26.5874 30.6317 26.5799C30.4029 26.6035 30.1904 26.7092 30.0335 26.8773C29.8765 27.0455 29.7858 27.2648 29.778 27.4946C29.7762 27.6025 29.7323 27.7054 29.6558 27.7813C29.5792 27.8573 29.4759 27.9003 29.3681 27.9012C29.2599 27.9003 29.1562 27.8574 29.0791 27.7816C29.002 27.7057 28.9574 27.6028 28.9547 27.4946V14.7905H27.8605L27.349 15.2987L26.6985 15.9424C26.6138 16.0208 26.5053 16.0685 26.3902 16.0779C26.3318 16.0811 26.2735 16.0705 26.2199 16.047C26.1663 16.0234 26.1191 15.9876 26.0819 15.9424L25.4315 15.2987L24.9199 14.7905H13.5337V29.1885Z" fill="#0B7BE2"/>
<path d="M27.2304 18.6187H15.258C15.1412 18.6187 15.0292 18.5723 14.9466 18.4897C14.864 18.4071 14.8176 18.2951 14.8176 18.1783C14.8176 18.0615 14.864 17.9495 14.9466 17.8669C15.0292 17.7843 15.1412 17.7379 15.258 17.7379H27.2304C27.3475 17.7388 27.4598 17.7852 27.5433 17.8675C27.6267 17.9497 27.6749 18.0612 27.6776 18.1783C27.6637 18.2914 27.6119 18.3965 27.5307 18.4765C27.4495 18.5564 27.3437 18.6066 27.2304 18.6187Z" fill="#0B7BE2"/>
<path d="M27.2304 20.3126H15.258C15.1412 20.3126 15.0292 20.2662 14.9466 20.1836C14.864 20.101 14.8176 19.989 14.8176 19.8722C14.8176 19.7554 14.864 19.6433 14.9466 19.5607C15.0292 19.4782 15.1412 19.4318 15.258 19.4318H27.2304C27.3475 19.4326 27.4598 19.4791 27.5433 19.5613C27.6267 19.6435 27.6749 19.755 27.6776 19.8722C27.6637 19.9853 27.6119 20.0904 27.5307 20.1703C27.4495 20.2503 27.3437 20.3004 27.2304 20.3126Z" fill="#0B7BE2"/>
<path d="M27.2304 22.0064H15.258C15.1412 22.0064 15.0292 21.96 14.9466 21.8774C14.864 21.7948 14.8176 21.6828 14.8176 21.566C14.8176 21.4492 14.864 21.3372 14.9466 21.2546C15.0292 21.172 15.1412 21.1256 15.258 21.1256H27.2304C27.3475 21.1265 27.4598 21.1729 27.5433 21.2552C27.6267 21.3374 27.6749 21.4489 27.6776 21.566C27.6637 21.6791 27.6119 21.7842 27.5307 21.8642C27.4495 21.9441 27.3437 21.9943 27.2304 22.0064Z" fill="#0B7BE2"/>
<path d="M27.2304 23.7003H15.258C15.1412 23.7003 15.0292 23.6539 14.9466 23.5713C14.864 23.4887 14.8176 23.3767 14.8176 23.2599C14.8176 23.1431 14.864 23.031 14.9466 22.9484C15.0292 22.8658 15.1412 22.8195 15.258 22.8195H27.2304C27.3475 22.8203 27.4598 22.8668 27.5433 22.949C27.6267 23.0312 27.6749 23.1427 27.6776 23.2599C27.6688 23.3749 27.6186 23.4829 27.5364 23.5638C27.4542 23.6448 27.3455 23.6932 27.2304 23.7003Z" fill="#0B7BE2"/>
<path d="M27.2304 25.3942H15.258C15.1412 25.3942 15.0292 25.3478 14.9466 25.2653C14.864 25.1827 14.8176 25.0706 14.8176 24.9538C14.8176 24.837 14.864 24.725 14.9466 24.6424C15.0292 24.5598 15.1412 24.5134 15.258 24.5134H27.2304C27.3475 24.5143 27.4598 24.5608 27.5433 24.643C27.6267 24.7252 27.6749 24.8367 27.6776 24.9538C27.6688 25.0689 27.6186 25.1768 27.5364 25.2578C27.4542 25.3387 27.3455 25.3872 27.2304 25.3942Z" fill="#0B7BE2"/>
<path d="M27.2304 27.0881H15.258C15.1412 27.0881 15.0292 27.0417 14.9466 26.9591C14.864 26.8765 14.8176 26.7645 14.8176 26.6477C14.8176 26.5309 14.864 26.4189 14.9466 26.3363C15.0292 26.2537 15.1412 26.2073 15.258 26.2073H27.2304C27.3475 26.2081 27.4598 26.2546 27.5433 26.3368C27.6267 26.419 27.6749 26.5305 27.6776 26.6477C27.6688 26.7627 27.6186 26.8707 27.5364 26.9516C27.4542 27.0326 27.3455 27.0811 27.2304 27.0881Z" fill="#0B7BE2"/>
<path d="M16.5217 28.3416C16.4051 28.3399 16.2937 28.2931 16.211 28.2109C16.1282 28.1288 16.0805 28.0178 16.0779 27.9012V16.9249C16.0876 16.8134 16.1388 16.7097 16.2212 16.6341C16.3037 16.5585 16.4115 16.5166 16.5234 16.5166C16.6352 16.5166 16.743 16.5585 16.8255 16.6341C16.908 16.7097 16.9591 16.8134 16.9689 16.9249V27.9351C16.9667 27.9913 16.9534 28.0466 16.9296 28.0976C16.9059 28.1486 16.8722 28.1943 16.8306 28.2322C16.7889 28.27 16.7402 28.2992 16.6871 28.318C16.6341 28.3368 16.5779 28.3448 16.5217 28.3416Z" fill="#0B7BE2"/>
<path d="M18.2325 28.3416C18.1159 28.3399 18.0045 28.2931 17.9218 28.2109C17.839 28.1288 17.7913 28.0178 17.7887 27.9012V16.9249C17.7984 16.8134 17.8496 16.7097 17.932 16.6341C18.0145 16.5585 18.1223 16.5166 18.2342 16.5166C18.3461 16.5166 18.4539 16.5585 18.5363 16.6341C18.6188 16.7097 18.67 16.8134 18.6797 16.9249V27.9351C18.6775 27.9913 18.6642 28.0466 18.6404 28.0976C18.6167 28.1486 18.583 28.1943 18.5414 28.2322C18.4997 28.27 18.451 28.2992 18.398 28.318C18.3449 28.3368 18.2887 28.3448 18.2325 28.3416Z" fill="#0B7BE2"/>
<path d="M19.9433 28.3416C19.8267 28.3399 19.7154 28.2931 19.6326 28.2109C19.5498 28.1288 19.5021 28.0178 19.4995 27.9012V16.9249C19.5092 16.8134 19.5604 16.7097 19.6429 16.6341C19.7253 16.5585 19.8331 16.5166 19.945 16.5166C20.0569 16.5166 20.1647 16.5585 20.2471 16.6341C20.3296 16.7097 20.3808 16.8134 20.3905 16.9249V27.9351C20.3883 27.9913 20.375 28.0466 20.3512 28.0976C20.3275 28.1486 20.2938 28.1943 20.2522 28.2322C20.2106 28.27 20.1618 28.2992 20.1088 28.318C20.0557 28.3368 19.9995 28.3448 19.9433 28.3416Z" fill="#0B7BE2"/>
<path d="M25.9329 28.3416C25.8157 28.3408 25.7035 28.2943 25.62 28.2121C25.5365 28.1299 25.4884 28.0184 25.4857 27.9012V16.9249C25.4954 16.8134 25.5466 16.7097 25.6291 16.6341C25.7115 16.5585 25.8193 16.5166 25.9312 16.5166C26.0431 16.5166 26.1509 16.5585 26.2334 16.6341C26.3158 16.7097 26.367 16.8134 26.3767 16.9249V27.9351C26.3745 27.991 26.3613 28.046 26.3378 28.0968C26.3142 28.1475 26.2809 28.1931 26.2396 28.2309C26.1983 28.2687 26.15 28.298 26.0973 28.317C26.0447 28.336 25.9888 28.3444 25.9329 28.3416Z" fill="#0B7BE2"/>
<path d="M31.919 32.9828H13.1C12.9835 32.981 12.8721 32.9342 12.7893 32.8521C12.7066 32.7699 12.6589 32.6589 12.6562 32.5424V31.2889C12.6763 31.1873 12.731 31.0958 12.811 31.03C12.891 30.9643 12.9914 30.9283 13.095 30.9283C13.1985 30.9283 13.2989 30.9643 13.3789 31.03C13.4589 31.0958 13.5136 31.1873 13.5337 31.2889V32.1358H31.4888V31.2889C31.4888 31.1712 31.5355 31.0583 31.6188 30.9751C31.702 30.8918 31.8149 30.8451 31.9326 30.8451C32.0503 30.8451 32.1632 30.8918 32.2464 30.9751C32.3296 31.0583 32.3764 31.1712 32.3764 31.2889V32.5762C32.3547 32.6845 32.2983 32.7827 32.2158 32.8561C32.1332 32.9294 32.0291 32.9739 31.919 32.9828Z" fill="#0B7BE2"/>
</g>
<defs>
<filter id="filter0_d_122_3606" x="0" y="0" width="45" height="45" filterUnits="userSpaceOnUse" color-interpolation-filters="sRGB">
<feFlood flood-opacity="0" result="BackgroundImageFix"/>
<feColorMatrix in="SourceAlpha" type="matrix" values="0 0 0 0 0 0 0 0 0 0 0 0 0 0 0 0 0 0 127 0" result="hardAlpha"/>
<feOffset/>
<feGaussianBlur stdDeviation="2.5"/>
<feComposite in2="hardAlpha" operator="out"/>
<feColorMatrix type="matrix" values="0 0 0 0 0.0431373 0 0 0 0 0.481569 0 0 0 0 0.886275 0 0 0 0.4 0"/>
<feBlend mode="normal" in2="BackgroundImageFix" result="effect1_dropShadow_122_3606"/>
<feBlend mode="normal" in="SourceGraphic" in2="effect1_dropShadow_122_3606" result="shape"/>
</filter>
</defs>
</svg>
