<svg width="45" height="45" viewBox="0 0 45 45" fill="none" xmlns="http://www.w3.org/2000/svg">
<g filter="url(#filter0_d_122_3584)">
<rect x="5" y="5" width="35" height="35" rx="8" fill="#EFF5FF" shape-rendering="crispEdges"/>
<rect x="5.5" y="5.5" width="34" height="34" rx="7.5" stroke="#71BBFE" shape-rendering="crispEdges"/>
<path d="M21.6609 25.5013H15.4436V28.5792H21.6609V25.5013Z" fill="white"/>
<path d="M30.5704 27.4712V31.6161H27.1313V27.4712C27.1367 27.0129 27.3223 26.5751 27.6479 26.2526C27.9736 25.93 28.413 25.7486 28.8714 25.7476C29.32 25.754 29.7496 25.9299 30.0738 26.24C30.3807 26.5781 30.5568 27.0147 30.5704 27.4712Z" fill="#C2E3F7"/>
<path d="M33.0162 22.3413V31.616H30.5293V27.4711C30.5288 27.2489 30.4843 27.0291 30.3986 26.8241C30.3128 26.6191 30.1874 26.4331 30.0295 26.2768C29.8716 26.1204 29.6844 25.9968 29.4786 25.913C29.2728 25.8292 29.0525 25.7869 28.8303 25.7886C28.372 25.7896 27.9325 25.971 27.6069 26.2936C27.2812 26.6161 27.0957 27.0539 27.0903 27.5122V31.6571H24.6198V22.3413H33.0162Z" fill="#C2E3F7"/>
<path d="M24.6444 22.3413V31.616H12.3082V22.3413H24.6444ZM21.6609 28.5792V25.5013H15.4436V28.5792H21.6609Z" fill="#C2E3F7"/>
<path d="M28.7893 13.1898L23.483 20.4126H9.89099L15.1932 13.1898H28.7893Z" fill="#C2E3F7"/>
<path d="M24.6444 32.1496H12.3082C12.167 32.1475 12.0321 32.0907 11.9318 31.9913C11.8316 31.8918 11.7738 31.7573 11.7706 31.6161V22.3414C11.7738 22.2002 11.8316 22.0657 11.9318 21.9662C12.0321 21.8667 12.167 21.8099 12.3082 21.8079H24.6608C24.8023 21.8079 24.938 21.8641 25.0381 21.9641C25.1381 22.0642 25.1943 22.1999 25.1943 22.3414C25.1943 22.4829 25.1381 22.6186 25.0381 22.7186C24.938 22.8187 24.8023 22.8749 24.6608 22.8749H12.8335V31.1236H24.6444C24.7857 31.1257 24.9206 31.1825 25.0208 31.282C25.1211 31.3814 25.1789 31.5159 25.182 31.6571C25.164 31.789 25.1004 31.9105 25.0022 32.0005C24.904 32.0904 24.7774 32.1432 24.6444 32.1496Z" fill="#0B7BE2"/>
<path d="M23.483 20.905H9.89101C9.79571 20.905 9.70236 20.878 9.62175 20.8272C9.54113 20.7764 9.47656 20.7037 9.43549 20.6177C9.38967 20.5345 9.36915 20.4396 9.37644 20.3449C9.38373 20.2501 9.41852 20.1595 9.47653 20.0842L14.7705 12.8614C14.8185 12.798 14.8805 12.7464 14.9517 12.7108C15.0229 12.6752 15.1013 12.6566 15.1809 12.6562H28.777C28.8722 12.6567 28.9653 12.6839 29.0458 12.7347C29.1264 12.7855 29.191 12.8578 29.2325 12.9435C29.2763 13.0274 29.2957 13.1218 29.2885 13.2161C29.2812 13.3105 29.2476 13.4009 29.1915 13.477L23.8852 20.6998C23.8356 20.7596 23.7744 20.8086 23.7052 20.8439C23.6361 20.8792 23.5605 20.9 23.483 20.905ZM10.8842 19.879H23.1957L27.751 13.6822H15.4394L10.8842 19.879Z" fill="#0B7BE2"/>
<path d="M34.0094 20.9049C33.9298 20.9046 33.8513 20.8859 33.7802 20.8503C33.709 20.8148 33.647 20.7632 33.599 20.6997L28.4609 13.477C28.4204 13.4241 28.3912 13.3634 28.3754 13.2987C28.3595 13.2339 28.3573 13.1666 28.3689 13.101C28.3805 13.0354 28.4056 12.9729 28.4426 12.9175C28.4797 12.8621 28.5278 12.815 28.5841 12.7793C28.6376 12.7385 28.6989 12.7093 28.7643 12.6933C28.8297 12.6774 28.8976 12.6752 28.9639 12.6867C29.0302 12.6983 29.0933 12.7234 29.1494 12.7605C29.2055 12.7976 29.2534 12.8459 29.2899 12.9024L34.428 20.1252C34.4698 20.1776 34.5 20.2382 34.5166 20.3032C34.5331 20.3681 34.5357 20.4358 34.524 20.5019C34.5124 20.5679 34.4868 20.6306 34.449 20.686C34.4112 20.7413 34.3621 20.788 34.3048 20.8229C34.2152 20.8756 34.1133 20.9039 34.0094 20.9049Z" fill="#0B7BE2"/>
<path d="M33.0162 32.1496H30.5293C30.3878 32.1496 30.2521 32.0934 30.1521 31.9933C30.052 31.8933 29.9958 31.7576 29.9958 31.6161C29.9958 31.4746 30.052 31.3389 30.1521 31.2388C30.2521 31.1388 30.3878 31.0826 30.5293 31.0826H32.5197V22.8749H25.1327V31.1236H27.0821C27.2236 31.1236 27.3593 31.1798 27.4593 31.2799C27.5594 31.3799 27.6156 31.5156 27.6156 31.6571C27.6156 31.7986 27.5594 31.9343 27.4593 32.0344C27.3593 32.1344 27.2236 32.1906 27.0821 32.1906H24.6198C24.4785 32.1885 24.3436 32.1318 24.2434 32.0323C24.1431 31.9328 24.0853 31.7983 24.0822 31.6571V22.3414C24.0853 22.2002 24.1431 22.0657 24.2434 21.9662C24.3436 21.8667 24.4785 21.8099 24.6198 21.8079H32.9916C33.1328 21.8099 33.2678 21.8667 33.368 21.9662C33.4683 22.0657 33.5261 22.2002 33.5292 22.3414V31.6161C33.5365 31.6862 33.5285 31.757 33.5056 31.8237C33.4827 31.8903 33.4455 31.9512 33.3967 32.002C33.3478 32.0528 33.2885 32.0923 33.2228 32.1178C33.1571 32.1433 33.0866 32.1541 33.0162 32.1496Z" fill="#0B7BE2"/>
<path d="M30.5704 32.1496H27.1314C26.9901 32.1475 26.8552 32.0907 26.755 31.9912C26.6547 31.8918 26.5969 31.7573 26.5938 31.6161V27.4712C26.5937 27.1784 26.6517 26.8886 26.7644 26.6184C26.877 26.3481 27.0421 26.1029 27.2501 25.8969C27.458 25.6908 27.7048 25.528 27.976 25.4179C28.2472 25.3077 28.5376 25.2524 28.8304 25.2551C29.4208 25.2618 29.9857 25.4972 30.4062 25.9117C30.8231 26.3243 31.0605 26.8846 31.067 27.4712V31.6161C31.0703 31.6839 31.06 31.7517 31.0366 31.8155C31.0133 31.8793 30.9775 31.9378 30.9312 31.9875C30.8849 32.0373 30.8291 32.0772 30.7672 32.105C30.7052 32.1329 30.6383 32.148 30.5704 32.1496ZM27.6279 31.1236H30.0328V27.4712C30.0335 27.3095 30.0006 27.1495 29.9364 27.0011C29.8721 26.8528 29.7778 26.7194 29.6593 26.6094C29.4922 26.445 29.2808 26.3329 29.051 26.2867C28.8212 26.2405 28.5829 26.2623 28.3652 26.3493C28.1476 26.4364 27.96 26.585 27.8254 26.7769C27.6908 26.9689 27.6151 27.1958 27.6074 27.4301L27.6484 31.1236H27.6279Z" fill="#0B7BE2"/>
<path d="M14.7705 18.9762C14.6493 18.9793 14.5316 18.9352 14.4422 18.8531C14.39 18.808 14.3474 18.753 14.3168 18.6912C14.2862 18.6294 14.2682 18.5621 14.264 18.4933C14.2598 18.4244 14.2694 18.3555 14.2923 18.2904C14.3151 18.2253 14.3507 18.1655 14.3971 18.1144L16.884 15.2828C16.9777 15.1784 17.1089 15.1154 17.249 15.1077C17.389 15.1 17.5264 15.1482 17.6309 15.2417C17.6833 15.2867 17.7261 15.3419 17.7566 15.4039C17.7872 15.4658 17.8049 15.5333 17.8088 15.6023C17.8126 15.6713 17.8025 15.7404 17.7789 15.8053C17.7554 15.8703 17.719 15.9298 17.6719 15.9804L15.1809 18.8121C15.0606 18.9014 14.9192 18.9579 14.7705 18.9762Z" fill="#0B7BE2"/>
<path d="M17.7212 18.9762C17.5999 18.9793 17.4822 18.9352 17.3929 18.8531C17.3405 18.8081 17.2977 18.7529 17.2671 18.691C17.2366 18.629 17.2189 18.5615 17.215 18.4925C17.2112 18.4235 17.2213 18.3545 17.2449 18.2895C17.2684 18.2245 17.3048 18.165 17.3518 18.1144L19.8142 15.2828C19.9078 15.1784 20.0391 15.1154 20.1791 15.1077C20.3192 15.1 20.4565 15.1482 20.5611 15.2417C20.6135 15.2867 20.6562 15.3419 20.6868 15.4039C20.7174 15.4658 20.7351 15.5333 20.7389 15.6023C20.7428 15.6713 20.7326 15.7404 20.7091 15.8053C20.6856 15.8703 20.6492 15.9298 20.6021 15.9804L18.1152 18.8121C18.0031 18.9048 17.8659 18.962 17.7212 18.9762Z" fill="#0B7BE2"/>
<path d="M20.7088 18.9763C20.5861 18.9804 20.4668 18.9362 20.3764 18.8531C20.324 18.8081 20.2812 18.753 20.2507 18.691C20.2201 18.629 20.2024 18.5615 20.1985 18.4925C20.1947 18.4235 20.2049 18.3545 20.2284 18.2895C20.2519 18.2245 20.2883 18.165 20.3354 18.1144L22.8223 15.2828C22.8683 15.2312 22.9241 15.1892 22.9863 15.1593C23.0486 15.1293 23.1162 15.1119 23.1852 15.1081C23.2542 15.1043 23.3233 15.1141 23.3885 15.1371C23.4536 15.16 23.5137 15.1956 23.5651 15.2417C23.6173 15.2868 23.6599 15.3418 23.6905 15.4036C23.7211 15.4654 23.7391 15.5327 23.7433 15.6016C23.7475 15.6704 23.7379 15.7394 23.715 15.8044C23.6922 15.8695 23.6566 15.9293 23.6102 15.9804L21.1233 18.8121C21.0011 18.9008 20.8586 18.9572 20.7088 18.9763Z" fill="#0B7BE2"/>
<path d="M21.6608 29.0716H15.4435C15.3023 29.0696 15.1673 29.0128 15.0671 28.9133C14.9668 28.8138 14.9091 28.6794 14.9059 28.5381V25.4603C14.9091 25.319 14.9668 25.1846 15.0671 25.0851C15.1673 24.9856 15.3023 24.9288 15.4435 24.9268H21.6608C21.8021 24.9288 21.937 24.9856 22.0372 25.0851C22.1375 25.1846 22.1953 25.319 22.1984 25.4603V28.5381C22.1818 28.6745 22.1197 28.8013 22.0222 28.8981C21.9247 28.9949 21.7974 29.0561 21.6608 29.0716ZM15.9401 28.0457H21.1232V25.9938H15.9401V28.0457Z" fill="#0B7BE2"/>
</g>
<defs>
<filter id="filter0_d_122_3584" x="0" y="0" width="45" height="45" filterUnits="userSpaceOnUse" color-interpolation-filters="sRGB">
<feFlood flood-opacity="0" result="BackgroundImageFix"/>
<feColorMatrix in="SourceAlpha" type="matrix" values="0 0 0 0 0 0 0 0 0 0 0 0 0 0 0 0 0 0 127 0" result="hardAlpha"/>
<feOffset/>
<feGaussianBlur stdDeviation="2.5"/>
<feComposite in2="hardAlpha" operator="out"/>
<feColorMatrix type="matrix" values="0 0 0 0 0.0431373 0 0 0 0 0.481569 0 0 0 0 0.886275 0 0 0 0.4 0"/>
<feBlend mode="normal" in2="BackgroundImageFix" result="effect1_dropShadow_122_3584"/>
<feBlend mode="normal" in="SourceGraphic" in2="effect1_dropShadow_122_3584" result="shape"/>
</filter>
</defs>
</svg>
