<svg width="45" height="45" viewBox="0 0 45 45" fill="none" xmlns="http://www.w3.org/2000/svg">
<g filter="url(#filter0_d_122_3524)">
<rect x="5" y="5" width="35" height="35" rx="8" fill="#EFF5FF" shape-rendering="crispEdges"/>
<rect x="5.5" y="5.5" width="34" height="34" rx="7.5" stroke="#71BBFE" shape-rendering="crispEdges"/>
<path d="M32.2526 28.3334H33.3919C33.6941 28.3334 33.9839 28.2163 34.1975 28.0079C34.4112 27.7995 34.5312 27.5169 34.5312 27.2222V22.9778C34.5326 22.8447 34.5074 22.7126 34.4572 22.5889L32.4634 17.3889C32.3822 17.1771 32.2368 16.9945 32.0464 16.8655C31.8561 16.7364 31.6299 16.6671 31.3981 16.6667H26.556C26.2538 16.6667 25.964 16.7837 25.7504 16.9921C25.5367 17.2005 25.4167 17.4831 25.4167 17.7778V28.3334" fill="#C2E3F7"/>
<path d="M32.2526 28.3334H33.3919C33.6941 28.3334 33.9839 28.2163 34.1975 28.0079C34.4112 27.7995 34.5312 27.5169 34.5312 27.2222V22.9778C34.5326 22.8447 34.5074 22.7126 34.4572 22.5889L32.4634 17.3889C32.3822 17.1771 32.2368 16.9945 32.0464 16.8655C31.8561 16.7364 31.6299 16.6671 31.3981 16.6667H26.556C26.2538 16.6667 25.964 16.7837 25.7504 16.9921C25.5367 17.2005 25.4167 17.4831 25.4167 17.7778V28.3334" stroke="#0B7BE2" stroke-linecap="round" stroke-linejoin="round"/>
<path d="M32.7083 23.2292L30.9613 18.125H26.875V23.2292H32.7083Z" fill="#C2E3F7" stroke="#0B7BE2" stroke-linecap="round" stroke-linejoin="round"/>
<path d="M18.4896 28.3333H24.9407H26.875" fill="#C2E3F7"/>
<path d="M18.4896 28.3333H24.9407H26.875" stroke="#0B7BE2" stroke-linecap="round" stroke-linejoin="round"/>
<path d="M19.2188 26.1458H24.6875" stroke="#0B7BE2" stroke-linecap="round" stroke-linejoin="round"/>
<path d="M13.75 28.3333H11.5625V26.1458H13.2031" fill="#C2E3F7"/>
<path d="M13.75 28.3333H11.5625V26.1458H13.2031" stroke="#0B7BE2" stroke-linecap="round" stroke-linejoin="round"/>
<path d="M16.1198 30.8854C17.4286 30.8854 18.4896 29.8244 18.4896 28.5156C18.4896 27.2068 17.4286 26.1458 16.1198 26.1458C14.811 26.1458 13.75 27.2068 13.75 28.5156C13.75 29.8244 14.811 30.8854 16.1198 30.8854Z" fill="#C2E3F7" stroke="#0B7BE2" stroke-linecap="round" stroke-linejoin="round"/>
<path d="M29.7917 30.8854C30.9998 30.8854 31.9792 29.8244 31.9792 28.5156C31.9792 27.2068 30.9998 26.1458 29.7917 26.1458C28.5836 26.1458 27.6042 27.2068 27.6042 28.5156C27.6042 29.8244 28.5836 30.8854 29.7917 30.8854Z" fill="#C2E3F7" stroke="#0B7BE2" stroke-linecap="round" stroke-linejoin="round"/>
<path d="M23.5938 24.3229H17.2917L11.5625 20.9773V16.5165L20.1562 14.8438L23.5938 19.8621V24.3229Z" fill="#C2E3F7" stroke="#0B7BE2" stroke-linecap="round" stroke-linejoin="round"/>
<path d="M20.3125 14.8438L17.7604 23.2292" stroke="#0B7BE2" stroke-linecap="round" stroke-linejoin="round"/>
<path d="M29.7917 19.9479V22.1354" stroke="#0B7BE2" stroke-linecap="round" stroke-linejoin="round"/>
</g>
<defs>
<filter id="filter0_d_122_3524" x="0" y="0" width="45" height="45" filterUnits="userSpaceOnUse" color-interpolation-filters="sRGB">
<feFlood flood-opacity="0" result="BackgroundImageFix"/>
<feColorMatrix in="SourceAlpha" type="matrix" values="0 0 0 0 0 0 0 0 0 0 0 0 0 0 0 0 0 0 127 0" result="hardAlpha"/>
<feOffset/>
<feGaussianBlur stdDeviation="2.5"/>
<feComposite in2="hardAlpha" operator="out"/>
<feColorMatrix type="matrix" values="0 0 0 0 0.0431373 0 0 0 0 0.481569 0 0 0 0 0.886275 0 0 0 0.4 0"/>
<feBlend mode="normal" in2="BackgroundImageFix" result="effect1_dropShadow_122_3524"/>
<feBlend mode="normal" in="SourceGraphic" in2="effect1_dropShadow_122_3524" result="shape"/>
</filter>
</defs>
</svg>
