<svg width="45" height="45" viewBox="0 0 45 45" fill="none" xmlns="http://www.w3.org/2000/svg">
<g filter="url(#filter0_d_122_3560)">
<rect x="5" y="5" width="35" height="35" rx="8" fill="#EFF5FF" shape-rendering="crispEdges"/>
<rect x="5.5" y="5.5" width="34" height="34" rx="7.5" stroke="#71BBFE" shape-rendering="crispEdges"/>
<path d="M24.1998 20.9183V23.0484H22.1711V20.9183C22.1774 20.7252 22.2398 20.5382 22.3507 20.3801C22.4616 20.2219 22.6161 20.0995 22.7954 20.0278C22.9748 19.956 23.1711 19.9381 23.3605 19.9761C23.5498 20.0142 23.724 20.1066 23.8617 20.242C23.9634 20.3237 24.0463 20.4265 24.1047 20.5432C24.163 20.6599 24.1955 20.7878 24.1998 20.9183Z" fill="#C2E3F7"/>
<path d="M26.2116 17.8751L26.1778 17.9765V23.0484H24.1998V20.9182C24.1996 20.7851 24.1722 20.6535 24.1193 20.5314C24.0663 20.4093 23.9891 20.2993 23.8921 20.2081C23.7544 20.0727 23.5802 19.9803 23.3909 19.9423C23.2015 19.9042 23.0052 19.9221 22.8259 19.9939C22.6465 20.0656 22.492 20.188 22.3811 20.3462C22.2702 20.5043 22.2078 20.6913 22.2015 20.8844V23.0146H20.2032V17.9427L20.1356 17.8751L23.1787 16.2859L26.2116 17.8751Z" fill="#C2E3F7"/>
<path d="M26.2116 17.8752L23.1685 16.286L20.1254 17.8752L20.1592 17.9766V23.0485H26.1339V17.9766L26.2116 17.8752ZM32.2235 15.0349V25.0434H13.0992V15.0349C13.0992 14.9186 13.1222 14.8035 13.1671 14.6962C13.2119 14.5888 13.2775 14.4915 13.3602 14.4097C13.443 14.3279 13.5411 14.2634 13.6489 14.2198C13.7567 14.1762 13.8721 14.1545 13.9884 14.1558H31.368C31.5959 14.1653 31.8116 14.2617 31.9707 14.4252C32.1298 14.5887 32.2202 14.8068 32.2235 15.0349Z" fill="white"/>
<path d="M32.2235 25.0433V27.0045C32.2235 27.1208 32.2004 27.2359 32.1556 27.3432C32.1108 27.4506 32.0451 27.5479 31.9624 27.6297C31.8797 27.7115 31.7816 27.776 31.6738 27.8196C31.5659 27.8632 31.4505 27.8849 31.3342 27.8836H13.9546C13.7213 27.881 13.4982 27.7879 13.3322 27.6238C13.1663 27.4598 13.0706 27.2377 13.0654 27.0045V25.0433H32.2235ZM22.8676 26.2944C22.8689 26.2058 22.8439 26.1189 22.7957 26.0446C22.7475 25.9703 22.6782 25.9121 22.5968 25.8773C22.5154 25.8424 22.4254 25.8326 22.3384 25.8491C22.2514 25.8655 22.1712 25.9075 22.1081 25.9696C22.045 26.0318 22.0019 26.1113 21.9841 26.198C21.9663 26.2848 21.9747 26.3749 22.0083 26.4568C22.0419 26.5388 22.0991 26.6089 22.1726 26.6582C22.2461 26.7076 22.3327 26.7339 22.4213 26.734C22.5382 26.7331 22.6502 26.6867 22.7335 26.6047C22.8169 26.5226 22.865 26.4113 22.8676 26.2944Z" fill="#C2E3F7"/>
<path d="M22.4213 25.855C22.5081 25.8556 22.5927 25.882 22.6646 25.9307C22.7364 25.9794 22.7922 26.0483 22.825 26.1286C22.8577 26.209 22.8659 26.2973 22.8486 26.3823C22.8313 26.4674 22.7891 26.5454 22.7275 26.6065C22.6659 26.6676 22.5876 26.7092 22.5024 26.7259C22.4172 26.7426 22.329 26.7337 22.2489 26.7003C22.1688 26.6669 22.1003 26.6106 22.0522 26.5384C22.004 26.4662 21.9783 26.3813 21.9783 26.2945C21.9769 26.2361 21.9874 26.1781 22.0093 26.1239C22.0311 26.0697 22.0637 26.0205 22.1051 25.9793C22.1466 25.9382 22.196 25.9059 22.2504 25.8846C22.3047 25.8632 22.3629 25.8531 22.4213 25.855Z" fill="#0B7BE2"/>
<path d="M25.5286 31.9073C25.4414 31.9075 25.356 31.8819 25.2832 31.8338C25.2104 31.7857 25.1535 31.7172 25.1195 31.6368L23.8211 28.0189C23.7874 27.9149 23.7932 27.8022 23.8375 27.7024C23.8818 27.6025 23.9615 27.5225 24.0612 27.4779C24.1656 27.4428 24.2793 27.4475 24.3804 27.4912C24.4815 27.5349 24.5629 27.6144 24.6089 27.7145L25.9411 31.3325C25.9757 31.4363 25.9702 31.5494 25.9258 31.6494C25.8814 31.7495 25.8013 31.8294 25.7011 31.8735C25.648 31.9011 25.5882 31.9128 25.5286 31.9073Z" fill="#0B7BE2"/>
<path d="M19.3173 31.9072C19.2697 31.9123 19.2217 31.9003 19.1821 31.8734C19.13 31.8547 19.0823 31.8257 19.0417 31.788C19.0012 31.7503 18.9687 31.7048 18.9463 31.6543C18.9239 31.6037 18.9119 31.5491 18.9112 31.4938C18.9104 31.4384 18.9209 31.3836 18.942 31.3324L20.2742 27.7145C20.2943 27.6627 20.3246 27.6155 20.3631 27.5756C20.4016 27.5356 20.4477 27.5037 20.4986 27.4817C20.5496 27.4596 20.6044 27.448 20.6599 27.4473C20.7154 27.4466 20.7705 27.457 20.822 27.4778C20.8737 27.4968 20.9211 27.5261 20.9613 27.5639C21.0015 27.6017 21.0336 27.6473 21.0557 27.6978C21.0778 27.7484 21.0894 27.8028 21.09 27.858C21.0905 27.9132 21.0798 27.9678 21.0587 28.0188L19.7298 31.6367C19.6949 31.7171 19.6373 31.7855 19.564 31.8336C19.4907 31.8816 19.405 31.9072 19.3173 31.9072Z" fill="#0B7BE2"/>
<path d="M27.7501 31.9073H17.1634C17.0469 31.9073 16.9351 31.861 16.8526 31.7786C16.7702 31.6961 16.7239 31.5843 16.7239 31.4678C16.7239 31.3512 16.7702 31.2394 16.8526 31.1569C16.9351 31.0745 17.0469 31.0282 17.1634 31.0282H27.7501C27.8665 31.0299 27.9776 31.0767 28.0602 31.1586C28.1428 31.2406 28.1904 31.3514 28.193 31.4678C28.1851 31.5823 28.1357 31.69 28.0543 31.7709C27.9728 31.8517 27.8647 31.9002 27.7501 31.9073Z" fill="#0B7BE2"/>
<path d="M19.9935 25.4491H13.0992C13.0414 25.4491 12.9843 25.4377 12.931 25.4156C12.8776 25.3935 12.8292 25.3611 12.7884 25.3203C12.7475 25.2795 12.7152 25.231 12.6931 25.1777C12.671 25.1244 12.6596 25.0672 12.6596 25.0095C12.6596 24.9518 12.671 24.8946 12.6931 24.8413C12.7152 24.788 12.7475 24.7395 12.7884 24.6987C12.8292 24.6579 12.8776 24.6255 12.931 24.6034C12.9843 24.5813 13.0414 24.5699 13.0992 24.5699H20.0307C20.1477 24.5708 20.2597 24.6172 20.343 24.6992C20.4263 24.7813 20.4744 24.8926 20.477 25.0095C20.466 25.13 20.4103 25.242 20.3208 25.3233C20.2313 25.4047 20.1145 25.4496 19.9935 25.4491Z" fill="#0B7BE2"/>
<path d="M32.2235 25.4491H19.9935C19.9358 25.4491 19.8786 25.4377 19.8253 25.4156C19.772 25.3935 19.7235 25.3611 19.6827 25.3203C19.6419 25.2795 19.6095 25.231 19.5874 25.1777C19.5653 25.1244 19.554 25.0672 19.554 25.0095C19.554 24.9518 19.5653 24.8946 19.5874 24.8413C19.6095 24.788 19.6419 24.7395 19.6827 24.6987C19.7235 24.6579 19.772 24.6255 19.8253 24.6034C19.8786 24.5813 19.9358 24.5699 19.9935 24.5699H32.2201C32.2778 24.5699 32.335 24.5813 32.3883 24.6034C32.4416 24.6255 32.4901 24.6579 32.5309 24.6987C32.5717 24.7395 32.6041 24.788 32.6262 24.8413C32.6483 24.8946 32.6596 24.9518 32.6596 25.0095C32.6596 25.0672 32.6483 25.1244 32.6262 25.1777C32.6041 25.231 32.5717 25.2795 32.5309 25.3203C32.4901 25.3611 32.4416 25.3935 32.3883 25.4156C32.335 25.4377 32.2778 25.4491 32.2201 25.4491H32.2235Z" fill="#0B7BE2"/>
<path d="M31.3342 28.2894H13.9546C13.785 28.2902 13.6169 28.2577 13.4598 28.1936C13.3028 28.1295 13.1599 28.0351 13.0393 27.9158C12.9188 27.7965 12.8229 27.6546 12.7572 27.4983C12.6914 27.3419 12.6571 27.1741 12.6562 27.0045V15.0349C12.6571 14.8653 12.6914 14.6975 12.7572 14.5411C12.8229 14.3847 12.9188 14.2429 13.0393 14.1235C13.1599 14.0042 13.3028 13.9098 13.4598 13.8457C13.6169 13.7817 13.785 13.7491 13.9546 13.75H31.3342C31.5038 13.7491 31.672 13.7817 31.829 13.8457C31.9861 13.9098 32.129 14.0042 32.2495 14.1235C32.3701 14.2429 32.466 14.3847 32.5317 14.5411C32.5975 14.6975 32.6317 14.8653 32.6326 15.0349V27.0045C32.6317 27.1741 32.5975 27.3419 32.5317 27.4983C32.466 27.6546 32.3701 27.7965 32.2495 27.9158C32.129 28.0351 31.9861 28.1295 31.829 28.1936C31.672 28.2577 31.5038 28.2902 31.3342 28.2894ZM13.9546 14.5953C13.8377 14.5962 13.7257 14.6425 13.6424 14.7246C13.559 14.8067 13.511 14.918 13.5083 15.0349V27.0045C13.511 27.1214 13.559 27.2327 13.6424 27.3148C13.7257 27.3968 13.8377 27.4432 13.9546 27.444H31.3342C31.4512 27.4432 31.5632 27.3968 31.6465 27.3148C31.7298 27.2327 31.7779 27.1214 31.7806 27.0045V15.0349C31.7779 14.918 31.7298 14.8067 31.6465 14.7246C31.5632 14.6425 31.4512 14.5962 31.3342 14.5953H13.9546Z" fill="#0B7BE2"/>
<path d="M16.7543 16.2859H14.7053C14.6476 16.2859 14.5904 16.2745 14.5371 16.2524C14.4838 16.2303 14.4353 16.1979 14.3945 16.1571C14.3537 16.1163 14.3213 16.0678 14.2992 16.0145C14.2771 15.9612 14.2657 15.904 14.2657 15.8463C14.2657 15.7886 14.2771 15.7314 14.2992 15.6781C14.3213 15.6248 14.3537 15.5763 14.3945 15.5355C14.4353 15.4947 14.4838 15.4623 14.5371 15.4402C14.5904 15.4181 14.6476 15.4067 14.7053 15.4067H16.7543C16.8707 15.4085 16.9819 15.4552 17.0645 15.5372C17.1471 15.6192 17.1947 15.73 17.1973 15.8463C17.1893 15.9608 17.14 16.0685 17.0585 16.1494C16.977 16.2303 16.8689 16.2788 16.7543 16.2859Z" fill="#0B7BE2"/>
<path d="M16.7543 17.9765H14.7053C14.5887 17.9765 14.4769 17.9302 14.3945 17.8478C14.3121 17.7654 14.2657 17.6536 14.2657 17.537C14.2657 17.4204 14.3121 17.3086 14.3945 17.2262C14.4769 17.1437 14.5887 17.0974 14.7053 17.0974H16.7543C16.8707 17.0991 16.9819 17.1459 17.0645 17.2279C17.1471 17.3098 17.1947 17.4206 17.1973 17.537C17.1893 17.6515 17.14 17.7592 17.0585 17.8401C16.977 17.9209 16.8689 17.9694 16.7543 17.9765Z" fill="#0B7BE2"/>
<path d="M18.9048 18.9572C18.8258 18.9593 18.748 18.938 18.6812 18.8959C18.6144 18.8537 18.5616 18.7927 18.5295 18.7205C18.4783 18.621 18.4677 18.5055 18.4999 18.3984C18.532 18.2912 18.6044 18.2007 18.7019 18.1457L22.969 15.8803C23.0693 15.8294 23.1852 15.8185 23.2932 15.8499C23.4012 15.8813 23.4932 15.9526 23.5506 16.0493C23.6015 16.1493 23.6116 16.265 23.5788 16.3723C23.546 16.4795 23.4728 16.5698 23.3748 16.6242L19.111 18.8896C19.0482 18.9271 18.9777 18.9502 18.9048 18.9572Z" fill="#0B7BE2"/>
<path d="M27.4322 18.9571C27.3618 18.9622 27.2911 18.9506 27.226 18.9233L22.969 16.6579C22.8715 16.6029 22.7991 16.5124 22.767 16.4052C22.7348 16.298 22.7454 16.1826 22.7966 16.0831C22.8539 15.9872 22.9453 15.9165 23.0525 15.8851C23.1597 15.8538 23.2748 15.8641 23.3747 15.914L27.6453 18.1456C27.7421 18.2011 27.8138 18.2919 27.8453 18.399C27.8768 18.5062 27.8657 18.6213 27.8143 18.7204C27.78 18.7923 27.7257 18.8529 27.658 18.8948C27.5903 18.9368 27.5119 18.9584 27.4322 18.9571Z" fill="#0B7BE2"/>
<path d="M22.1845 23.4541H20.2031C20.0868 23.4524 19.9756 23.4056 19.893 23.3237C19.8104 23.2417 19.7628 23.1309 19.7602 23.0146V17.9427C19.7602 17.8252 19.8069 17.7126 19.8899 17.6295C19.973 17.5464 20.0857 17.4998 20.2031 17.4998C20.3206 17.4998 20.4333 17.5464 20.5163 17.6295C20.5994 17.7126 20.6461 17.8252 20.6461 17.9427V22.6088H22.1845C22.3009 22.6105 22.4121 22.6573 22.4947 22.7393C22.5773 22.8212 22.6249 22.932 22.6275 23.0484C22.6253 23.1042 22.6121 23.159 22.5886 23.2097C22.5651 23.2604 22.5318 23.3059 22.4906 23.3436C22.4495 23.3814 22.4012 23.4106 22.3487 23.4295C22.2961 23.4485 22.2403 23.4568 22.1845 23.4541Z" fill="#0B7BE2"/>
<path d="M26.1778 23.4541H24.1998C24.0832 23.4541 23.9714 23.4078 23.889 23.3254C23.8066 23.2429 23.7603 23.1311 23.7603 23.0145C23.7603 22.898 23.8066 22.7862 23.889 22.7037C23.9714 22.6213 24.0832 22.575 24.1998 22.575H25.7687V17.9765C25.7784 17.8653 25.8295 17.7617 25.9118 17.6863C25.9941 17.6108 26.1017 17.569 26.2133 17.569C26.325 17.569 26.4326 17.6108 26.5149 17.6863C26.5972 17.7617 26.6483 17.8653 26.658 17.9765V23.0483C26.6297 23.1573 26.5684 23.2549 26.4824 23.3275C26.3964 23.4002 26.29 23.4444 26.1778 23.4541Z" fill="#0B7BE2"/>
<path d="M24.1998 23.4542H22.1711C22.0541 23.4533 21.9421 23.4069 21.8588 23.3249C21.7754 23.2428 21.7274 23.1315 21.7247 23.0146V20.9182C21.7292 20.54 21.8825 20.1789 22.1516 19.913C22.4206 19.6472 22.7835 19.4981 23.1618 19.4981C23.3456 19.4928 23.5285 19.5261 23.6986 19.596C23.8686 19.6659 24.0221 19.7708 24.1491 19.9039C24.2806 20.0309 24.3849 20.1833 24.4558 20.3519C24.5267 20.5204 24.5627 20.7016 24.5616 20.8844V23.0146C24.5677 23.0674 24.563 23.1209 24.548 23.1718C24.5329 23.2228 24.5078 23.2702 24.474 23.3112C24.4403 23.3522 24.3986 23.386 24.3515 23.4106C24.3043 23.4352 24.2528 23.45 24.1998 23.4542ZM22.6275 22.6089H23.7535V20.9182C23.7481 20.767 23.688 20.6228 23.5844 20.5125C23.5033 20.4322 23.4004 20.3775 23.2884 20.3553C23.1765 20.3331 23.0604 20.3443 22.9548 20.3876C22.8492 20.4308 22.7586 20.5042 22.6944 20.5986C22.6302 20.6929 22.5952 20.8041 22.5937 20.9182V22.6089H22.6275Z" fill="#0B7BE2"/>
<path d="M29.6977 23.8937H28.8423C28.7845 23.8937 28.7274 23.8823 28.6741 23.8602C28.6207 23.8381 28.5723 23.8057 28.5315 23.7649C28.4906 23.7241 28.4583 23.6756 28.4362 23.6223C28.4141 23.569 28.4027 23.5118 28.4027 23.4541C28.4027 23.3964 28.4141 23.3392 28.4362 23.2859C28.4583 23.2325 28.4906 23.1841 28.5315 23.1433C28.5723 23.1025 28.6207 23.0701 28.6741 23.048C28.7274 23.0259 28.7845 23.0145 28.8423 23.0145H29.2852V16.252H28.8423C28.7845 16.252 28.7274 16.2407 28.6741 16.2186C28.6207 16.1965 28.5723 16.1641 28.5315 16.1233C28.4906 16.0825 28.4583 16.034 28.4362 15.9807C28.4141 15.9274 28.4027 15.8702 28.4027 15.8125C28.4027 15.7548 28.4141 15.6976 28.4362 15.6443C28.4583 15.5909 28.4906 15.5425 28.5315 15.5017C28.5723 15.4609 28.6207 15.4285 28.6741 15.4064C28.7274 15.3843 28.7845 15.3729 28.8423 15.3729H29.6977C29.8135 15.3755 29.9238 15.4226 30.0057 15.5045C30.0876 15.5864 30.1347 15.6967 30.1373 15.8125V23.4203C30.141 23.5411 30.0969 23.6586 30.0146 23.7471C29.9324 23.8357 29.8185 23.8884 29.6977 23.8937Z" fill="#0B7BE2"/>
</g>
<defs>
<filter id="filter0_d_122_3560" x="0" y="0" width="45" height="45" filterUnits="userSpaceOnUse" color-interpolation-filters="sRGB">
<feFlood flood-opacity="0" result="BackgroundImageFix"/>
<feColorMatrix in="SourceAlpha" type="matrix" values="0 0 0 0 0 0 0 0 0 0 0 0 0 0 0 0 0 0 127 0" result="hardAlpha"/>
<feOffset/>
<feGaussianBlur stdDeviation="2.5"/>
<feComposite in2="hardAlpha" operator="out"/>
<feColorMatrix type="matrix" values="0 0 0 0 0.0431373 0 0 0 0 0.481569 0 0 0 0 0.886275 0 0 0 0.4 0"/>
<feBlend mode="normal" in2="BackgroundImageFix" result="effect1_dropShadow_122_3560"/>
<feBlend mode="normal" in="SourceGraphic" in2="effect1_dropShadow_122_3560" result="shape"/>
</filter>
</defs>
</svg>
